{
  "accessors": [
    {
      "bufferView": 2,
      "componentType": 5126,
      "count": 16946,
      "max": [
        8.084747314453125,
        58.83467102050781,
        -43.52863693237305
      ],
      "min": [
        -8.084747314453125,
        0.887669026851654,
        -101.46359252929688
      ],
      "type": "VEC3"
    },
    {
      "bufferView": 2,
      "byteOffset": 203352,
      "componentType": 5126,
      "count": 16946,
      "max": [
        1.0,
        1.0,
        1.0
      ],
      "min": [
        -1.0,
        -1.0,
        -1.0
      ],
      "type": "VEC3"
    },
    {
      "bufferView": 3,
      "componentType": 5126,
      "count": 16946,
      "max": [
        1.0,
        0.9997351169586182,
        1.0,
        1.0
      ],
      "min": [
        -1.0,
        -0.9998388886451721,
        -1.0,
        -1.0
      ],
      "type": "VEC4"
    },
    {
      "bufferView": 1,
      "componentType": 5126,
      "count": 16946,
      "max": [
        0.8698449730873108,
        0.9995120167732239
      ],
      "min": [
        0.0004879999905824661,
        0.0004879999905824661
      ],
      "type": "VEC2"
    },
    {
      "bufferView": 0,
      "componentType": 5125,
      "count": 50673,
      "type": "SCALAR"
    },
    {
      "bufferView": 2,
      "byteOffset": 406704,
      "componentType": 5126,
      "count": 13255,
      "max": [
        14.252490997314453,
        60.65316390991211,
        94.39219665527344
      ],
      "min": [
        -14.302604675292969,
        0.6255000233650208,
        34.377037048339844
      ],
      "type": "VEC3"
    },
    {
      "bufferView": 2,
      "byteOffset": 565764,
      "componentType": 5126,
      "count": 13255,
      "max": [
        1.0,
        1.0,
        1.0
      ],
      "min": [
        -1.0,
        -1.0,
        -1.0
      ],
      "type": "VEC3"
    },
    {
      "bufferView": 3,
      "byteOffset": 271136,
      "componentType": 5126,
      "count": 13255,
      "max": [
        1.0,
        0.9999998807907104,
        0.999947190284729,
        1.0
      ],
      "min": [
        -1.0,
        -1.0,
        -0.9999886155128479,
        -1.0
      ],
      "type": "VEC4"
    },
    {
      "bufferView": 1,
      "byteOffset": 135568,
      "componentType": 5126,
      "count": 13255,
      "max": [
        0.6502829790115356,
        0.9995120167732239
      ],
      "min": [
        0.0004879999905824661,
        0.0004879999905824661
      ],
      "type": "VEC2"
    },
    {
      "bufferView": 0,
      "byteOffset": 202692,
      "componentType": 5125,
      "count": 35487,
      "type": "SCALAR"
    },
    {
      "bufferView": 2,
      "byteOffset": 724824,
      "componentType": 5126,
      "count": 6899,
      "max": [
        18.394739151000977,
        86.93740844726563,
        68.4956283569336
      ],
      "min": [
        -18.394742965698242,
        17.662601470947266,
        -55.2425651550293
      ],
      "type": "VEC3"
    },
    {
      "bufferView": 2,
      "byteOffset": 807612,
      "componentType": 5126,
      "count": 6899,
      "max": [
        1.0,
        1.0,
        1.0
      ],
      "min": [
        -1.0,
        -1.0,
        -1.0
      ],
      "type": "VEC3"
    },
    {
      "bufferView": 3,
      "byteOffset": 483216,
      "componentType": 5126,
      "count": 6899,
      "max": [
        1.0,
        1.0,
        1.0,
        1.0
      ],
      "min": [
        -1.0,
        -1.0,
        -1.0,
        1.0
      ],
      "type": "VEC4"
    },
    {
      "bufferView": 1,
      "byteOffset": 241608,
      "componentType": 5126,
      "count": 6899,
      "max": [
        0.9638090133666992,
        0.9995120167732239
      ],
      "min": [
        0.0004879999905824661,
        0.0004879999905824661
      ],
      "type": "VEC2"
    },
    {
      "bufferView": 0,
      "byteOffset": 344640,
      "componentType": 5125,
      "count": 26472,
      "type": "SCALAR"
    },
    {
      "bufferView": 2,
      "byteOffset": 890400,
      "componentType": 5126,
      "count": 2186,
      "max": [
        13.18740177154541,
        95.38558959960938,
        85.36729431152344
      ],
      "min": [
        -13.159132957458496,
        57.85496139526367,
        -85.51171112060547
      ],
      "type": "VEC3"
    },
    {
      "bufferView": 2,
      "byteOffset": 916632,
      "componentType": 5126,
      "count": 2186,
      "max": [
        1.0,
        0.9999983310699463,
        0.9995004534721375
      ],
      "min": [
        -1.0,
        -0.9998700022697449,
        -0.9999935030937195
      ],
      "type": "VEC3"
    },
    {
      "bufferView": 3,
      "byteOffset": 593600,
      "componentType": 5126,
      "count": 2186,
      "max": [
        1.0,
        0.9992320537567139,
        0.9980501532554626,
        1.0
      ],
      "min": [
        -1.0,
        -0.9973475337028503,
        -0.9966691136360168,
        1.0
      ],
      "type": "VEC4"
    },
    {
      "bufferView": 1,
      "byteOffset": 296800,
      "componentType": 5126,
      "count": 2186,
      "max": [
        0.9743980169296265,
        0.9993199706077576
      ],
      "min": [
        0.013681000098586082,
        0.0004879999905824661
      ],
      "type": "VEC2"
    },
    {
      "bufferView": 0,
      "byteOffset": 450528,
      "componentType": 5125,
      "count": 7944,
      "type": "SCALAR"
    },
    {
      "bufferView": 2,
      "byteOffset": 942864,
      "componentType": 5126,
      "count": 18946,
      "max": [
        20.937360763549805,
        67.79296875,
        40.27214050292969
      ],
      "min": [
        -20.937360763549805,
        13.820430755615234,
        -41.232025146484375
      ],
      "type": "VEC3"
    },
    {
      "bufferView": 2,
      "byteOffset": 1170216,
      "componentType": 5126,
      "count": 18946,
      "max": [
        1.0,
        1.0,
        1.0
      ],
      "min": [
        -1.0,
        -1.0,
        -1.0
      ],
      "type": "VEC3"
    },
    {
      "bufferView": 3,
      "byteOffset": 628576,
      "componentType": 5126,
      "count": 18946,
      "max": [
        1.0,
        0.9999984502792358,
        0.9999985098838806,
        1.0
      ],
      "min": [
        -1.0,
        -0.9999881386756897,
        -0.9999451637268066,
        -1.0
      ],
      "type": "VEC4"
    },
    {
      "bufferView": 1,
      "byteOffset": 314288,
      "componentType": 5126,
      "count": 18946,
      "max": [
        0.9959160089492798,
        0.9995120167732239
      ],
      "min": [
        0.0004879999905824661,
        0.0004879999905824661
      ],
      "type": "VEC2"
    },
    {
      "bufferView": 1,
      "byteOffset": 465856,
      "componentType": 5126,
      "count": 18946,
      "max": [
        0.0,
        0.0
      ],
      "min": [
        0.0,
        0.0
      ],
      "type": "VEC2"
    },
    {
      "bufferView": 1,
      "byteOffset": 617424,
      "componentType": 5126,
      "count": 18946,
      "max": [
        0.0,
        0.0
      ],
      "min": [
        0.0,
        0.0
      ],
      "type": "VEC2"
    },
    {
      "bufferView": 1,
      "byteOffset": 768992,
      "componentType": 5126,
      "count": 18946,
      "max": [
        0.0,
        0.0
      ],
      "min": [
        0.0,
        0.0
      ],
      "type": "VEC2"
    },
    {
      "bufferView": 0,
      "byteOffset": 482304,
      "componentType": 5125,
      "count": 58323,
      "type": "SCALAR"
    },
    {
      "bufferView": 2,
      "byteOffset": 1397568,
      "componentType": 5126,
      "count": 6764,
      "max": [
        15.044450759887695,
        92.21379089355469,
        77.65686798095703
      ],
      "min": [
        -14.33978271484375,
        44.59890365600586,
        16.8840389251709
      ],
      "type": "VEC3"
    },
    {
      "bufferView": 2,
      "byteOffset": 1478736,
      "componentType": 5126,
      "count": 6764,
      "max": [
        0.9999993443489075,
        0.9999989867210388,
        0.999477744102478
      ],
      "min": [
        -0.9999868869781494,
        -0.9999911189079285,
        -0.9977885484695435
      ],
      "type": "VEC3"
    },
    {
      "bufferView": 3,
      "byteOffset": 931712,
      "componentType": 5126,
      "count": 6764,
      "max": [
        0.9999628067016602,
        0.9990653395652771,
        0.9980278611183167,
        1.0
      ],
      "min": [
        -0.9998583793640137,
        -0.9999923706054688,
        -0.9996486902236938,
        -1.0
      ],
      "type": "VEC4"
    },
    {
      "bufferView": 1,
      "byteOffset": 920560,
      "componentType": 5126,
      "count": 6764,
      "max": [
        0.9995120167732239,
        0.9623000025749207
      ],
      "min": [
        0.0004879999905824661,
        0.0004889999981969595
      ],
      "type": "VEC2"
    },
    {
      "bufferView": 1,
      "byteOffset": 974672,
      "componentType": 5126,
      "count": 6764,
      "max": [
        0.9915080070495605,
        0.9973919987678528
      ],
      "min": [
        0.0,
        0.0
      ],
      "type": "VEC2"
    },
    {
      "bufferView": 1,
      "byteOffset": 1028784,
      "componentType": 5126,
      "count": 6764,
      "max": [
        0.8658729791641235,
        0.8656330108642578
      ],
      "min": [
        0.0,
        0.0
      ],
      "type": "VEC2"
    },
    {
      "bufferView": 0,
      "byteOffset": 715596,
      "componentType": 5125,
      "count": 26280,
      "type": "SCALAR"
    },
    {
      "bufferView": 2,
      "byteOffset": 1559904,
      "componentType": 5126,
      "count": 5135,
      "max": [
        36.22307586669922,
        114.29684448242188,
        -46.42328643798828
      ],
      "min": [
        -36.22116470336914,
        66.7579574584961,
        -98.23538970947266
      ],
      "type": "VEC3"
    },
    {
      "bufferView": 2,
      "byteOffset": 1621524,
      "componentType": 5126,
      "count": 5135,
      "max": [
        0.999943733215332,
        0.9998754858970642,
        0.998299777507782
      ],
      "min": [
        -0.9999452233314514,
        -0.999933123588562,
        -0.9999253749847412
      ],
      "type": "VEC3"
    },
    {
      "bufferView": 3,
      "byteOffset": 1039936,
      "componentType": 5126,
      "count": 5135,
      "max": [
        0.9996426701545715,
        0.9997294545173645,
        0.9996474981307983,
        1.0
      ],
      "min": [
        -0.9999910593032837,
        -0.9999910593032837,
        -0.9988130927085876,
        -1.0
      ],
      "type": "VEC4"
    },
    {
      "bufferView": 1,
      "byteOffset": 1082896,
      "componentType": 5126,
      "count": 5135,
      "max": [
        0.8847460150718689,
        0.962073028087616
      ],
      "min": [
        0.0004879999905824661,
        0.0004879999905824661
      ],
      "type": "VEC2"
    },
    {
      "bufferView": 0,
      "byteOffset": 820716,
      "componentType": 5125,
      "count": 24990,
      "type": "SCALAR"
    },
    {
      "bufferView": 2,
      "byteOffset": 1683144,
      "componentType": 5126,
      "count": 20766,
      "max": [
        16.94112205505371,
        94.82350158691406,
        78.19999694824219
      ],
      "min": [
        -17.37394142150879,
        18.834205627441406,
        -89.17572784423828
      ],
      "type": "VEC3"
    },
    {
      "bufferView": 2,
      "byteOffset": 1932336,
      "componentType": 5126,
      "count": 20766,
      "max": [
        1.0,
        0.9999991059303284,
        0.9999866485595703
      ],
      "min": [
        -1.0,
        -0.9999998807907104,
        -0.9999493360519409
      ],
      "type": "VEC3"
    },
    {
      "bufferView": 3,
      "byteOffset": 1122096,
      "componentType": 5126,
      "count": 20766,
      "max": [
        1.0,
        0.9999522566795349,
        0.9998356699943542,
        1.0
      ],
      "min": [
        -1.0,
        -0.9998600482940674,
        -0.9998767971992493,
        -1.0
      ],
      "type": "VEC4"
    },
    {
      "bufferView": 1,
      "byteOffset": 1123976,
      "componentType": 5126,
      "count": 20766,
      "max": [
        0.9995120167732239,
        0.9991409778594971
      ],
      "min": [
        0.0004879999905824661,
        0.0004879999905824661
      ],
      "type": "VEC2"
    },
    {
      "bufferView": 0,
      "byteOffset": 920676,
      "componentType": 5125,
      "count": 71328,
      "type": "SCALAR"
    },
    {
      "bufferView": 2,
      "byteOffset": 2181528,
      "componentType": 5126,
      "count": 8529,
      "max": [
        36.619361877441406,
        97.27189636230469,
        -20.107744216918945
      ],
      "min": [
        -36.619361877441406,
        25.652830123901367,
        -77.14556121826172
      ],
      "type": "VEC3"
    },
    {
      "bufferView": 2,
      "byteOffset": 2283876,
      "componentType": 5126,
      "count": 8529,
      "max": [
        1.0,
        1.0,
        1.0
      ],
      "min": [
        -1.0,
        -1.0,
        -1.0
      ],
      "type": "VEC3"
    },
    {
      "bufferView": 3,
      "byteOffset": 1454352,
      "componentType": 5126,
      "count": 8529,
      "max": [
        1.0,
        1.0,
        1.0,
        1.0
      ],
      "min": [
        -1.0,
        -1.0,
        -1.0,
        -1.0
      ],
      "type": "VEC4"
    },
    {
      "bufferView": 1,
      "byteOffset": 1290104,
      "componentType": 5126,
      "count": 8529,
      "max": [
        0.9896069765090942,
        0.9990500211715698
      ],
      "min": [
        0.0004879999905824661,
        0.0004879999905824661
      ],
      "type": "VEC2"
    },
    {
      "bufferView": 0,
      "byteOffset": 1205988,
      "componentType": 5125,
      "count": 26580,
      "type": "SCALAR"
    }
  ],
  "asset": {
    "extras": {
      "author": "MKoegler3D (https://sketchfab.com/MKoegler3D)",
      "license": "CC-BY-4.0 (http://creativecommons.org/licenses/by/4.0/)",
      "source": "https://sketchfab.com/3d-models/post-apo-motocycle-bb942bbf15dd4e97ac4951b2d35f5692",
      "title": "Post-Apo Motocycle"
    },
    "generator": "Sketchfab-16.53.0",
    "version": "2.0"
  },
  "bufferViews": [
    {
      "buffer": 0,
      "byteLength": 1312308,
      "name": "floatBufferViews",
      "target": 34963
    },
    {
      "buffer": 0,
      "byteLength": 1358336,
      "byteOffset": 1312308,
      "byteStride": 8,
      "name": "floatBufferViews",
      "target": 34962
    },
    {
      "buffer": 0,
      "byteLength": 2386224,
      "byteOffset": 2670644,
      "byteStride": 12,
      "name": "floatBufferViews",
      "target": 34962
    },
    {
      "buffer": 0,
      "byteLength": 1590816,
      "byteOffset": 5056868,
      "byteStride": 16,
      "name": "floatBufferViews",
      "target": 34962
    }
  ],
  "buffers": [
    {
      "byteLength": 6647684,
      "uri": "scene.bin"
    }
  ],
  "images": [
    {
      "uri": "textures/Material_003_baseColor.jpeg"
    },
    {
      "uri": "textures/Material_003_metallicRoughness.png"
    },
    {
      "uri": "textures/Material_003_normal.png"
    },
    {
      "uri": "textures/Material_002_baseColor.jpeg"
    },
    {
      "uri": "textures/Material_002_metallicRoughness.png"
    },
    {
      "uri": "textures/Material_002_emissive.jpeg"
    },
    {
      "uri": "textures/Material_002_normal.png"
    },
    {
      "uri": "textures/Material_baseColor.jpeg"
    },
    {
      "uri": "textures/Material_metallicRoughness.png"
    },
    {
      "uri": "textures/Material_normal.png"
    },
    {
      "uri": "textures/Material_001_baseColor.jpeg"
    },
    {
      "uri": "textures/Material_001_metallicRoughness.png"
    },
    {
      "uri": "textures/Material_001_normal.png"
    },
    {
      "uri": "textures/Material_004_baseColor.jpeg"
    },
    {
      "uri": "textures/Material_004_metallicRoughness.png"
    },
    {
      "uri": "textures/Material_004_normal.png"
    },
    {
      "uri": "textures/Material_005_baseColor.jpeg"
    },
    {
      "uri": "textures/Material_005_metallicRoughness.png"
    },
    {
      "uri": "textures/Material_005_normal.png"
    }
  ],
  "materials": [
    {
      "doubleSided": true,
      "name": "Material_003",
      "normalTexture": {
        "index": 2
      },
      "occlusionTexture": {
        "index": 1
      },
      "pbrMetallicRoughness": {
        "baseColorTexture": {
          "index": 0
        },
        "metallicRoughnessTexture": {
          "index": 1
        }
      }
    },
    {
      "doubleSided": true,
      "emissiveFactor": [
        1.0,
        1.0,
        1.0
      ],
      "emissiveTexture": {
        "index": 5
      },
      "name": "Material_002",
      "normalTexture": {
        "index": 6
      },
      "occlusionTexture": {
        "index": 4
      },
      "pbrMetallicRoughness": {
        "baseColorTexture": {
          "index": 3
        },
        "metallicRoughnessTexture": {
          "index": 4
        }
      }
    },
    {
      "doubleSided": true,
      "emissiveFactor": [
        1.0,
        1.0,
        1.0
      ],
      "emissiveTexture": {
        "index": 5
      },
      "name": "Material",
      "normalTexture": {
        "index": 9
      },
      "occlusionTexture": {
        "index": 8
      },
      "pbrMetallicRoughness": {
        "baseColorTexture": {
          "index": 7
        },
        "metallicRoughnessTexture": {
          "index": 8
        }
      }
    },
    {
      "doubleSided": true,
      "name": "Material_001",
      "normalTexture": {
        "index": 12
      },
      "occlusionTexture": {
        "index": 11
      },
      "pbrMetallicRoughness": {
        "baseColorTexture": {
          "index": 10
        },
        "metallicRoughnessTexture": {
          "index": 11
        }
      }
    },
    {
      "doubleSided": true,
      "name": "Material_004",
      "normalTexture": {
        "index": 15
      },
      "occlusionTexture": {
        "index": 14
      },
      "pbrMetallicRoughness": {
        "baseColorTexture": {
          "index": 13
        },
        "metallicRoughnessTexture": {
          "index": 14
        }
      }
    },
    {
      "doubleSided": true,
      "name": "Material_005",
      "normalTexture": {
        "index": 18
      },
      "occlusionTexture": {
        "index": 17
      },
      "pbrMetallicRoughness": {
        "baseColorTexture": {
          "index": 16
        },
        "metallicRoughnessTexture": {
          "index": 17
        }
      }
    }
  ],
  "meshes": [
    {
      "name": "defaultMaterial",
      "primitives": [
        {
          "attributes": {
            "NORMAL": 1,
            "POSITION": 0,
            "TANGENT": 2,
            "TEXCOORD_0": 3
          },
          "indices": 4,
          "material": 5,
          "mode": 4
        }
      ]
    },
    {
      "name": "defaultMaterial",
      "primitives": [
        {
          "attributes": {
            "NORMAL": 6,
            "POSITION": 5,
            "TANGENT": 7,
            "TEXCOORD_0": 8
          },
          "indices": 9,
          "material": 4,
          "mode": 4
        }
      ]
    },
    {
      "name": "defaultMaterial",
      "primitives": [
        {
          "attributes": {
            "NORMAL": 11,
            "POSITION": 10,
            "TANGENT": 12,
            "TEXCOORD_0": 13
          },
          "indices": 14,
          "material": 3,
          "mode": 4
        }
      ]
    },
    {
      "name": "defaultMaterial",
      "primitives": [
        {
          "attributes": {
            "NORMAL": 16,
            "POSITION": 15,
            "TANGENT": 17,
            "TEXCOORD_0": 18
          },
          "indices": 19,
          "material": 3,
          "mode": 4
        }
      ]
    },
    {
      "name": "defaultMaterial",
      "primitives": [
        {
          "attributes": {
            "NORMAL": 21,
            "POSITION": 20,
            "TANGENT": 22,
            "TEXCOORD_0": 23,
            "TEXCOORD_1": 24,
            "TEXCOORD_2": 25,
            "TEXCOORD_3": 26
          },
          "indices": 27,
          "material": 2,
          "mode": 4
        }
      ]
    },
    {
      "name": "defaultMaterial",
      "primitives": [
        {
          "attributes": {
            "NORMAL": 29,
            "POSITION": 28,
            "TANGENT": 30,
            "TEXCOORD_0": 31,
            "TEXCOORD_1": 32,
            "TEXCOORD_2": 33
          },
          "indices": 34,
          "material": 1,
          "mode": 4
        }
      ]
    },
    {
      "name": "defaultMaterial",
      "primitives": [
        {
          "attributes": {
            "NORMAL": 36,
            "POSITION": 35,
            "TANGENT": 37,
            "TEXCOORD_0": 38
          },
          "indices": 39,
          "material": 1,
          "mode": 4
        }
      ]
    },
    {
      "name": "defaultMaterial",
      "primitives": [
        {
          "attributes": {
            "NORMAL": 41,
            "POSITION": 40,
            "TANGENT": 42,
            "TEXCOORD_0": 43
          },
          "indices": 44,
          "material": 0,
          "mode": 4
        }
      ]
    },
    {
      "name": "defaultMaterial",
      "primitives": [
        {
          "attributes": {
            "NORMAL": 46,
            "POSITION": 45,
            "TANGENT": 47,
            "TEXCOORD_0": 48
          },
          "indices": 49,
          "material": 0,
          "mode": 4
        }
      ]
    }
  ],
  "nodes": [
    {
      "children": [
        1
      ],
      "matrix": [
        1.0,
        0.0,
        0.0,
        0.0,
        0.0,
        2.220446049250313e-16,
        -1.0,
        0.0,
        0.0,
        1.0,
        2.220446049250313e-16,
        0.0,
        0.0,
        0.0,
        0.0,
        1.0
      ],
      "name": "Sketchfab_model"
    },
    {
      "children": [
        2,
        4,
        6,
        8,
        10,
        12,
        14,
        16,
        18
      ],
      "matrix": [
        1.0,
        0.0,
        0.0,
        0.0,
        0.0,
        -4.371139006309477e-08,
        0.999999999999999,
        0.0,
        0.0,
        -0.999999999999999,
        -4.371139006309477e-08,
        0.0,
        0.0,
        0.0,
        0.0,
        1.0
      ],
      "name": "Collada visual scene group"
    },
    {
      "children": [
        3
      ],
      "name": "kolo"
    },
    {
      "mesh": 0,
      "name": "defaultMaterial"
    },
    {
      "children": [
        5
      ],
      "name": "kolo"
    },
    {
      "mesh": 1,
      "name": "defaultMaterial"
    },
    {
      "children": [
        7
      ],
      "name": "rama"
    },
    {
      "mesh": 2,
      "name": "defaultMaterial"
    },
    {
      "children": [
        9
      ],
      "name": "gora"
    },
    {
      "mesh": 3,
      "name": "defaultMaterial"
    },
    {
      "children": [
        11
      ],
      "name": "silnik"
    },
    {
      "mesh": 4,
      "name": "defaultMaterial"
    },
    {
      "children": [
        13
      ],
      "name": "Kanister"
    },
    {
      "mesh": 5,
      "name": "defaultMaterial"
    },
    {
      "children": [
        15
      ],
      "name": "czaszka.005"
    },
    {
      "mesh": 6,
      "name": "defaultMaterial"
    },
    {
      "children": [
        17
      ],
      "name": "Linie"
    },
    {
      "mesh": 7,
      "name": "defaultMaterial"
    },
    {
      "children": [
        19
      ],
      "name": "Kierownica"
    },
    {
      "mesh": 8,
      "name": "defaultMaterial"
    }
  ],
  "samplers": [
    {
      "magFilter": 9729,
      "minFilter": 9987,
      "wrapS": 10497,
      "wrapT": 10497
    }
  ],
  "scene": 0,
  "scenes": [
    {
      "name": "Sketchfab_Scene",
      "nodes": [
        0
      ]
    }
  ],
  "textures": [
    {
      "sampler": 0,
      "source": 0
    },
    {
      "sampler": 0,
      "source": 1
    },
    {
      "sampler": 0,
      "source": 2
    },
    {
      "sampler": 0,
      "source": 3
    },
    {
      "sampler": 0,
      "source": 4
    },
    {
      "sampler": 0,
      "source": 5
    },
    {
      "sampler": 0,
      "source": 6
    },
    {
      "sampler": 0,
      "source": 7
    },
    {
      "sampler": 0,
      "source": 8
    },
    {
      "sampler": 0,
      "source": 9
    },
    {
      "sampler": 0,
      "source": 10
    },
    {
      "sampler": 0,
      "source": 11
    },
    {
      "sampler": 0,
      "source": 12
    },
    {
      "sampler": 0,
      "source": 13
    },
    {
      "sampler": 0,
      "source": 14
    },
    {
      "sampler": 0,
      "source": 15
    },
    {
      "sampler": 0,
      "source": 16
    },
    {
      "sampler": 0,
      "source": 17
    },
    {
      "sampler": 0,
      "source": 18
    }
  ]
}
